<svg version="1.1" id="Layer_1" xmlns="http://www.w3.org/2000/svg" xmlns:xlink="http://www.w3.org/1999/xlink" x="0px" y="0px"
	 width="100%" viewBox="0 0 1024 1024" enable-background="new 0 0 1024 1024" xml:space="preserve">
<path fill="#000000" opacity="1.000000" stroke="none" 
	d="
M570.987549,671.023560 
	C569.289612,668.952637 570.841248,667.658447 571.617615,666.312561 
	C610.409851,599.065857 649.245605,531.844177 687.977112,464.562500 
	C689.889709,461.239990 691.581604,461.059448 694.677795,462.885956 
	C709.600098,471.688934 724.594543,480.371368 739.641846,488.959229 
	C742.560242,490.624817 743.323364,492.037872 741.362854,495.157898 
	C737.466431,501.358734 733.865417,507.759491 730.434387,514.232422 
	C728.664124,517.572388 726.850037,517.855957 723.741272,515.986816 
	C715.747375,511.180267 707.545654,506.719696 699.549500,501.916809 
	C696.409363,500.030670 694.668457,500.497772 692.816284,503.719757 
	C664.670715,552.681396 636.464600,601.608337 608.130676,650.461182 
	C605.980042,654.169250 606.683350,655.824707 610.236633,657.750671 
	C618.288757,662.114929 626.071899,666.973328 634.090576,671.402588 
	C637.096252,673.062744 637.743042,674.708069 635.939392,677.715515 
	C632.084778,684.142639 628.352966,690.649658 624.787537,697.241211 
	C623.040588,700.470764 621.145935,700.306702 618.347656,698.662720 
	C602.690613,689.464722 586.966370,680.381226 570.987549,671.023560 
z"/>
<path fill="#000000" opacity="1.000000" stroke="none" 
	d="
M321.649200,468.587372 
	C325.002563,466.667328 328.197815,465.154175 331.031128,463.133453 
	C334.567230,460.611542 336.363922,461.633118 338.377319,465.165527 
	C351.902924,488.895172 365.609802,512.521545 379.266388,536.176514 
	C403.915131,578.871155 428.564331,621.565552 453.228210,664.251465 
	C456.683533,670.231628 456.728882,670.219910 450.945007,673.560974 
	C436.667938,681.808167 422.322052,689.939209 408.147491,698.358826 
	C404.574371,700.481262 402.752533,700.101990 400.822144,696.381775 
	C397.526733,690.030884 393.863556,683.861450 390.143585,677.744263 
	C388.325043,674.753723 388.875549,673.120605 391.928589,671.446167 
	C399.812408,667.122314 407.418427,662.283630 415.367310,658.090088 
	C419.699646,655.804504 419.920044,653.662598 417.545197,649.591064 
	C398.413055,616.790649 379.490265,583.868042 360.494690,550.987915 
	C351.579803,535.556824 342.545685,520.193298 333.790100,504.672516 
	C331.608215,500.804688 329.651978,499.829712 325.643829,502.335358 
	C317.880859,507.188232 309.805969,511.539337 301.934113,516.222412 
	C299.264618,517.810486 297.575287,517.699463 295.951447,514.725281 
	C292.361420,508.149902 288.590302,501.664673 284.650543,495.292633 
	C282.825531,492.340942 283.220276,490.713776 286.275543,488.990356 
	C298.024353,482.363037 309.655487,475.527161 321.649200,468.587372 
z"/>
<path fill="#000000" opacity="1.000000" stroke="none" 
	d="
M402.038269,301.682281 
	C407.530457,301.683289 412.541840,301.899689 417.525360,301.620148 
	C421.812897,301.379669 423.499390,302.816071 423.369598,307.280396 
	C423.108154,316.271271 423.484528,325.280426 423.235260,334.271973 
	C423.117737,338.512421 424.733551,339.654633 428.766876,339.647491 
	C485.091858,339.547638 541.417114,339.539215 597.742126,339.645691 
	C601.878845,339.653503 602.841614,337.989258 602.777283,334.286224 
	C602.618164,325.123749 602.873718,315.953552 602.677490,306.792542 
	C602.592896,302.844147 604.063232,301.510223 607.936157,301.628967 
	C615.095093,301.848511 622.267761,301.798645 629.430176,301.647400 
	C632.860718,301.574951 634.206848,302.919159 634.192200,306.330505 
	C634.118042,323.660889 634.120972,340.991913 634.191956,358.322357 
	C634.205872,361.725098 632.790894,363.256989 629.414673,363.090942 
	C628.085327,363.025513 626.749146,363.106628 625.416077,363.106750 
	C550.260254,363.113586 475.104462,363.120148 399.948669,363.122589 
	C391.823547,363.122864 391.822968,363.111389 391.824677,354.785980 
	C391.827820,339.621490 391.833984,324.457031 391.834259,309.292542 
	C391.834381,301.695465 391.829773,301.695374 399.545959,301.682648 
	C400.212402,301.681549 400.878876,301.682465 402.038269,301.682281 
z"/>
<path fill="#000000" opacity="1.000000" stroke="none" 
	d="
M455.563507,196.194580 
	C493.324890,196.113220 530.642700,196.143219 567.959717,195.981995 
	C572.303894,195.963242 573.653809,197.319061 573.641663,201.686707 
	C573.573792,226.171295 573.752930,250.656952 573.941895,275.141510 
	C573.971924,279.029785 572.366455,280.422150 568.533936,280.305756 
	C561.709656,280.098511 554.867371,280.051575 548.046814,280.311188 
	C543.918030,280.468353 542.551636,279.021240 542.596863,274.882233 
	C542.775513,258.557617 542.482910,242.226715 542.764343,225.905045 
	C542.847046,221.110046 541.101746,219.956329 536.702209,220.005371 
	C520.710815,220.183655 504.715057,220.170700 488.723480,219.997833 
	C484.631409,219.953613 483.219574,221.260208 483.269348,225.440430 
	C483.463593,241.764694 483.182373,258.095184 483.433685,274.417847 
	C483.506256,279.133331 481.836517,280.505646 477.374023,280.324890 
	C470.388062,280.041870 463.381989,280.172394 456.386017,280.256317 
	C453.460175,280.291382 452.142731,279.263000 452.271423,276.160370 
	C453.280060,251.845291 451.765106,227.533447 452.136200,203.219391 
	C452.175446,200.647842 451.060181,197.243439 455.563507,196.194580 
z"/>
<path fill="#000000" opacity="1.000000" stroke="none" 
	d="
M777.839111,642.774658 
	C767.427368,660.829163 757.076538,678.498779 747.076843,696.364868 
	C744.711182,700.591370 742.841553,701.072021 738.668884,698.602844 
	C718.039001,686.395813 697.278564,674.404541 676.409729,662.610474 
	C672.182068,660.221191 671.496277,658.147949 674.177551,654.141357 
	C677.225586,649.586670 679.662659,644.627441 682.470886,639.906860 
	C687.236206,631.896179 685.596375,631.747803 694.143860,636.600281 
	C707.751770,644.325623 721.369324,652.038452 734.834351,660.007507 
	C738.073486,661.924500 739.596191,661.552673 741.427063,658.313965 
	C749.537109,643.967834 757.806763,629.710510 766.161926,615.505310 
	C768.036011,612.319153 767.482178,610.614075 764.270447,608.807922 
	C749.905884,600.729614 735.714966,592.342224 721.335938,584.290405 
	C717.469910,582.125488 716.484253,580.210022 719.144775,576.214844 
	C722.827332,570.684753 726.090515,564.841248 729.112122,558.917175 
	C731.116943,554.986572 733.107605,554.579102 736.860535,556.789185 
	C756.225952,568.193481 775.746338,579.334167 795.166016,590.646851 
	C804.821960,596.271851 804.738708,596.327271 799.023132,606.144226 
	C791.987549,618.228271 785.023499,630.353882 777.839111,642.774658 
z"/>
<path fill="#000000" opacity="1.000000" stroke="none" 
	d="
M229.189941,609.754272 
	C227.165070,606.269104 225.494217,602.985962 223.451340,599.953491 
	C221.416229,596.932495 222.342667,595.405273 225.267120,593.732910 
	C246.671005,581.492432 268.027374,569.167786 289.314453,556.725403 
	C292.782074,554.698547 294.738007,554.843201 296.706482,558.682068 
	C299.971313,565.048950 303.678528,571.197754 307.388733,577.323730 
	C309.174194,580.271790 308.676819,581.882507 305.626617,583.608582 
	C290.982605,591.895264 276.526825,600.515869 261.845367,608.734192 
	C258.286957,610.726074 258.062775,612.426514 259.999390,615.715088 
	C268.283905,629.782898 276.450256,643.922485 284.460724,658.148010 
	C286.388641,661.571838 288.089081,661.986755 291.486938,659.975769 
	C305.679504,651.575806 320.095947,643.554077 334.286011,635.150024 
	C338.075623,632.905640 340.089417,633.491516 342.117188,637.306458 
	C346.007202,644.624817 350.266663,651.746704 354.706635,659.535706 
	C348.766907,662.978455 343.334106,666.131653 337.897278,669.277893 
	C320.882965,679.123535 303.809204,688.868896 286.896271,698.885803 
	C283.097992,701.135315 281.329468,700.548096 279.166473,696.746155 
	C262.689758,667.785400 246.002579,638.944397 229.189941,609.754272 
z"/>
</svg>